<svg data-v-0dd9719b="" version="1.0" xmlns="http://www.w3.org/2000/svg" xmlns:xlink="http://www.w3.org/1999/xlink" width="100%" height="100%" viewBox="0 0 340.000000 250.000000" preserveAspectRatio="xMidYMid meet" color-interpolation-filters="sRGB" style="margin: auto;"> <rect data-v-0dd9719b="" x="0" y="0" width="100%" height="100%" fill="#ffffff" fill-opacity="1" class="background"></rect> <rect data-v-0dd9719b="" x="0" y="0" width="100%" height="100%" fill="url(#watermark)" fill-opacity="1" class="watermarklayer"></rect> <g data-v-0dd9719b="" fill="#133359" class="icon-text-wrapper icon-svg-group iconsvg" transform="translate(48.56499481201172,97.56812286376953)"><g class="iconsvg-imagesvg" transform="translate(0,1.5269145965576172)"><g><rect fill="#133359" fill-opacity="0" stroke-width="2" x="0" y="0" width="60" height="52.809928266514106" class="image-rect"></rect> <svg x="0" y="0" width="60" height="52.809928266514106" filtersec="colorsb1128616096" class="image-svg-svg primary" style="overflow: visible;"><svg xmlns="http://www.w3.org/2000/svg" viewBox="0 0 76.44000244140625 67.27999877929688"><title>资源 13</title><path fill="#fbbb11" d="M35.02 0v22.87L0 45.26V22.02L35.02 0z"></path><path fill="#133359" d="M41.42 67.28V44.41l35.02-22.39v23.24L41.42 67.28z"></path><path fill="#133359" d="M41.42 0v22.87l35.02 22.39V22.02L41.42 0z"></path><path fill="#f58020" d="M35.02 67.28V44.41L0 22.02v23.24l35.02 22.02z"></path></svg></svg> <!----></g></g> <g transform="translate(67,0)"><g data-gra="path-name" fill-rule="" class="tp-name iconsvg-namesvg" transform="translate(0,0)"><g transform="scale(1)"><g><path d="M4-37L4-37 4.35-37.31Q10.68-37.13 12.48-34.19L12.48-34.19Q13.54-32.43 12.44-30.92 11.34-29.4 9.36-30.01L9.36-30.01Q8.96-30.15 8.57-30.37L8.57-30.37Q8.09-32.04 6.77-33.86 5.45-35.68 4-37ZM1.23-27.11L1.23-27.11 1.58-27.47Q7.56-27.07 9.1-24.21L9.1-24.21Q10.06-22.46 8.88-21.05 7.69-19.64 5.8-20.39L5.8-20.39Q5.41-20.52 5.05-20.79L5.05-20.79Q4.39-24.17 1.23-27.11ZM13.97-29.18L13.97-29.18 14.72-28.96Q10.24-14.55 9.62-11.82L9.62-11.82Q8.96-9.1 8.96-7.65L8.96-7.65Q9.01-6.81 9.93-4.44 10.85-2.07 10.77 0.22L10.77 0.22Q10.72 1.89 9.67 2.9 8.61 3.91 6.99 3.91L6.99 3.91Q5.01 3.91 4.53 1.63L4.53 1.63Q5.14-1.85 5.03-4.59 4.92-7.34 4.13-7.82L4.13-7.82Q3.16-8.44 1.85-8.57L1.85-8.57 1.85-9.4 3.87-9.4Q4.26-9.4 4.42-9.45 4.57-9.49 4.79-9.67 5.01-9.84 5.23-10.28L5.23-10.28Q5.89-11.43 13.97-29.18ZM20.74-23.95L20.74-13.62 25.58-13.62 25.58-23.95 20.74-23.95ZM26.37-8.66L26.37-8.66 25.58-8.66 25.58-12.39 20.74-12.39 20.74-8.13Q20.74-7.95 20.3-7.65 19.86-7.34 18.94-7.05 18.02-6.77 16.96-6.77L16.96-6.77 16.17-6.77 16.17-27.25 21.31-25.18 25.14-25.18 27.38-27.55 31.82-24.13Q31.38-23.51 30.28-23.33L30.28-23.33 30.28-9.8Q30.23-9.67 29.6-9.4 28.96-9.14 28.02-8.9 27.07-8.66 26.37-8.66ZM13.84-33.57L35.82-33.57 38.85-37.62Q42.19-34.89 44.17-33L44.17-33Q43.95-32.26 42.89-32.26L42.89-32.26 39.46-32.26 39.46-2.55Q39.46 0.48 38.03 2.09 36.61 3.69 32.21 4L32.21 4Q31.99 1.23 30.85 0.22L30.85 0.22Q29.14-1.19 25.97-1.63L25.97-1.63 25.97-2.2Q31.95-1.85 33.22-1.85L33.22-1.85Q34.28-1.85 34.28-2.86L34.28-2.86 34.28-32.26 14.24-32.26 13.84-33.57ZM78.09-7.56L78.09-7.56 69.7-7.56 69.7 1.58Q69.65 1.71 69.19 1.96 68.73 2.2 67.7 2.44 66.67 2.68 65.48 2.68L65.48 2.68 64.56 2.68 64.56-7.56 56.47-7.56 56.12-8.88 64.56-8.88 64.56-14.33 56.87-14.33 56.51-15.56 68.55-15.56Q69.83-19.38 70.58-23.38L70.58-23.38 76.64-21.71Q76.33-20.79 74.93-20.83L74.93-20.83Q72.25-17.71 69.87-15.56L69.87-15.56 72.77-15.56 74.93-18.19Q77.43-16.39 79.01-15.03L79.01-15.03Q78.84-14.33 77.78-14.33L77.78-14.33 69.7-14.33 69.7-8.88 72.47-8.88 74.84-11.87Q77.61-9.76 79.32-8.26L79.32-8.26Q79.15-7.56 78.09-7.56ZM58.8-23.03L58.8-23.03 59.24-23.25Q64.38-22.1 65.3-19.34L65.3-19.34Q65.87-17.62 64.6-16.52L64.6-16.52Q63.24-15.34 61.52-16.44L61.52-16.44Q61.26-16.57 61.04-16.79L61.04-16.79Q61-19.91 58.8-23.03ZM87.36-30.54L87.36-30.54 69.96-30.54 69.96-25.18 79.85-25.18 82.27-27.95 87.41-23.95Q86.75-23.2 85.56-23.03L85.56-23.03 85.56-1.98Q85.56 0.92 84.22 2.31 82.88 3.69 78.62 4.04L78.62 4.04Q78.4 1.36 77.52 0.44L77.52 0.44Q76.16-0.92 73.43-1.32L73.43-1.32 73.43-1.93Q78.09-1.58 79.28-1.58L79.28-1.58Q80.29-1.58 80.29-2.5L80.29-2.5 80.29-23.91 54.8-23.91 54.8 2.11Q54.8 2.64 53.37 3.32 51.94 4 50.41 4L50.41 4 49.53 4 49.53-27.51 55.2-25.18 64.6-25.18 64.6-30.54 46.8-30.54 46.45-31.82 64.6-31.82 64.6-38.1 71.63-37.53Q71.5-36.47 69.96-36.25L69.96-36.25 69.96-31.82 79.85-31.82 82.92-35.73Q86.44-33.13 88.64-31.29L88.64-31.29Q88.42-30.54 87.36-30.54ZM132.23-33.35L100.85-33.35 100.85-23.82Q100.85-20.7 100.74-18.41 100.63-16.13 100.13-12.72 99.62-9.32 98.7-6.66 97.78-4 96-1.08 94.22 1.85 91.76 4.04L91.76 4.04 91.27 3.69Q94.04-1.85 94.88-8.5 95.71-15.16 95.71-23.82L95.71-23.82 95.71-37.13 101.65-34.63 125.16-34.63 128.1-38.36Q131.44-35.82 133.51-34.06L133.51-34.06Q133.33-33.35 132.23-33.35L132.23-33.35ZM109.38-23.16L109.38-19.16 123-19.16 123-23.16 109.38-23.16ZM123-24.48L123-28.26 109.38-28.26 109.38-24.48 123-24.48ZM118.48-7.47L125.68-7.47 128.54-11.03Q131.7-8.66 133.68-6.9L133.68-6.9Q133.55-6.15 132.45-6.15L132.45-6.15 118.48-6.15 118.48-1.93Q118.48 1.01 117.14 2.33 115.8 3.65 111.45 4L111.45 4Q111.18 1.49 110.26 0.66L110.26 0.66Q108.94-0.57 105.91-1.05L105.91-1.05 105.91-1.63Q111.31-1.27 112.32-1.27L112.32-1.27Q113.2-1.27 113.2-2.02L113.2-2.02 113.2-6.15 99.8-6.15 99.45-7.47 113.2-7.47 113.2-11.07 117.86-10.68Q119.09-11.43 121.51-13.18L121.51-13.18 103.4-13.18 103.01-14.46 122.52-14.46 124.58-16.44Q124.37-16.39 123.88-16.39L123.88-16.39 123-16.39 123-17.93 109.38-17.93 109.38-17.14Q109.38-16.92 108.74-16.55 108.11-16.17 107.05-15.86 106-15.56 105.03-15.56L105.03-15.56 104.33-15.56 104.33-31.73 109.73-29.58 122.52-29.58 124.98-32.21 129.99-28.34Q129.51-27.77 128.19-27.47L128.19-27.47 128.19-17.49Q128.14-17.36 127.33-17.05 126.52-16.74 125.55-16.57L125.55-16.57 129.51-13.1Q129.11-12.61 127.66-12.57L127.66-12.57Q122.92-10.94 119.88-10.15L119.88-10.15Q119.62-9.58 118.48-9.36L118.48-9.36 118.48-7.47ZM169.94-3.21L169.94-27.64 177.1-26.89Q176.97-25.88 175.47-25.66L175.47-25.66 175.47 1.54Q175.47 1.98 173.96 2.59 172.44 3.21 170.95 3.21L170.95 3.21 169.94 3.21 169.94-1.93 144.89-1.93 144.89 2.15Q144.89 2.55 143.39 3.19 141.9 3.82 140.45 3.82L140.45 3.82 139.44 3.82 139.44-27.47 146.56-26.76Q146.43-25.75 144.89-25.53L144.89-25.53 144.89-3.21 154.47-3.21 154.47-37.22 161.72-36.52Q161.59-35.46 160.09-35.24L160.09-35.24 160.09-3.21 169.94-3.21Z" transform="translate(-1.2300000190734863, 38.36000061035156)"></path></g> <!----> <!----> <!----> <!----> <!----> <!----> <!----></g></g> <g data-gra="path-slogan" fill-rule="" class="tp-slogan iconsvg-slogansvg" fill="#133359" transform="translate(4.999992370605469,47.400001525878906)"><rect x="0" height="1" y="3.2300000190734863" width="36.965003967285156"></rect> <rect height="1" y="3.2300000190734863" width="36.965003967285156" x="128.9050064086914"></rect> <g transform="translate(39.965003967285156,0)"><g transform="scale(1)"><path d="M1.72-4.22L5.47-4.22L5.47-7.15L6.45-7.15L6.45 0L5.47 0L5.47-3.32L1.72-3.32L1.72 0L0.74 0L0.74-7.15L1.72-7.15L1.72-4.22ZM9.02-0.86L13.32-0.86L13.32 0L8.05 0L8.05-7.15L13.24-7.15L13.24-6.33L9.02-6.33L9.02-4.10L12.93-4.10L12.93-3.24L9.02-3.24L9.02-0.86ZM15.74-7.15L19.34-1.37L19.34-7.15L20.27-7.15L20.27 0L19.18 0L15.55-5.78L15.51-5.78L15.51 0L14.57 0L14.57-7.15L15.74-7.15ZM26.48 0L25.78-2.07L22.89-2.07L22.15 0L21.17 0L23.87-7.15L24.96-7.15L27.54 0L26.48 0ZM24.34-6.09L23.20-2.93L25.43-2.93L24.38-6.09L24.34-6.09ZM29.57-7.15L33.16-1.37L33.16-7.15L34.10-7.15L34.10 0L33.01 0L29.38-5.78L29.34-5.78L29.34 0L28.40 0L28.40-7.15L29.57-7.15ZM39.34-4.22L43.09-4.22L43.09-7.15L44.06-7.15L44.06 0L43.09 0L43.09-3.32L39.34-3.32L39.34 0L38.36 0L38.36-7.15L39.34-7.15L39.34-4.22ZM51.21-3.55L51.21-3.55Q51.05-6.37 48.71-6.52L48.71-6.52Q46.33-6.41 46.21-3.55L46.21-3.55Q46.33-0.78 48.71-0.66L48.71-0.66Q51.05-0.82 51.21-3.55ZM52.19-3.55L52.19-3.55Q51.95 0 48.71 0.12L48.71 0.12Q45.43 0 45.20-3.55L45.20-3.55Q45.39-7.27 48.71-7.34L48.71-7.34Q51.95-7.23 52.19-3.55ZM58.05-2.66L58.05-7.15L59.02-7.15L59.02-2.54Q58.91 0.04 56.09 0.12L56.09 0.12Q53.48 0.04 53.36-2.38L53.36-2.38L53.36-7.15L54.34-7.15L54.34-2.66Q54.38-0.70 56.13-0.66L56.13-0.66Q58.05-0.70 58.05-2.66L58.05-2.66ZM65.74-5.08L65.74-5.08L64.84-5.08Q64.77-6.45 63.05-6.52L63.05-6.52Q61.45-6.48 61.45-5.27L61.45-5.27Q61.45-4.49 62.30-4.38L62.30-4.38L64.34-3.91Q65.94-3.52 65.94-1.95L65.94-1.95Q65.90 0.04 63.13 0.12L63.13 0.12Q61.60 0.12 60.98-0.51L60.98-0.51Q60.20-1.09 60.23-2.30L60.23-2.30L61.17-2.30Q61.21-0.66 63.13-0.63L63.13-0.63Q65-0.66 65.04-1.84L65.04-1.84Q65.20-2.81 63.48-3.13L63.48-3.13L61.99-3.44Q60.47-3.87 60.47-5.16L60.47-5.16Q60.59-7.27 62.97-7.34L62.97-7.34Q65.66-7.34 65.74-5.08ZM68.13-4.22L71.88-4.22L71.88-7.15L72.85-7.15L72.85 0L71.88 0L71.88-3.32L68.13-3.32L68.13 0L67.15 0L67.15-7.15L68.13-7.15L68.13-4.22ZM79.06 0L78.36-2.07L75.47-2.07L74.73 0L73.75 0L76.45-7.15L77.54-7.15L80.12 0L79.06 0ZM76.91-6.09L75.78-2.93L78.01-2.93L76.95-6.09L76.91-6.09ZM82.15-7.15L85.74-1.37L85.74-7.15L86.68-7.15L86.68 0L85.59 0L81.95-5.78L81.91-5.78L81.91 0L80.98 0L80.98-7.15L82.15-7.15Z" transform="translate(-0.7421875, 7.34375)"></path></g></g></g></g></g><defs v-gra="od"></defs></svg>